<svg width="90" height="80" viewBox="0 0 90 80" fill="none" xmlns="http://www.w3.org/2000/svg">
<g clip-path="url(#clip0_1_6006)">
<path d="M88.7776 30.5936C88.7457 30.5936 88.7145 30.5839 88.6883 30.5656L45.4486 0.452175C45.317 0.360961 45.1606 0.312215 45.0005 0.312488C44.8404 0.312761 44.6842 0.36204 44.5529 0.453702L1.6246 30.5653C1.59064 30.5891 1.54862 30.5985 1.50777 30.5913C1.46692 30.5841 1.43059 30.561 1.40677 30.5271C1.38296 30.4931 1.3736 30.4511 1.38077 30.4102C1.38794 30.3694 1.41105 30.3331 1.445 30.3092L44.3734 0.19765C44.5572 0.0693416 44.7758 0.000369863 45 1.48338e-06C45.2242 -0.000366897 45.443 0.0678852 45.6273 0.195588L88.8671 30.3089C88.8944 30.328 88.9149 30.3552 88.9257 30.3867C88.9364 30.4182 88.9368 30.4524 88.9268 30.4841C88.9168 30.5159 88.897 30.5436 88.8701 30.5633C88.8433 30.583 88.8109 30.5936 88.7776 30.5936Z" fill="#3F3D56"/>
<path d="M4.07764 31.661L45.043 1.30066L86.3192 33.8213L47.1537 57.0392L25.8902 52.1924L4.07764 31.661Z" fill="#E6E6E6"/>
<path d="M27.6851 71.3799H7.44721C7.32294 71.3801 7.19986 71.3557 7.085 71.3083C6.97015 71.2608 6.86578 71.1912 6.77785 71.1034C6.68992 71.0156 6.62017 70.9113 6.57258 70.7965C6.52499 70.6817 6.50049 70.5587 6.50049 70.4344C6.50049 70.3101 6.52499 70.1871 6.57258 70.0723C6.62017 69.9575 6.68992 69.8532 6.77785 69.7654C6.86578 69.6776 6.97015 69.608 7.085 69.5605C7.19986 69.5131 7.32294 69.4887 7.44721 69.4889H27.6851C27.8094 69.4887 27.9325 69.5131 28.0473 69.5605C28.1622 69.608 28.2665 69.6776 28.3545 69.7654C28.4424 69.8532 28.5121 69.9575 28.5597 70.0723C28.6073 70.1871 28.6318 70.3101 28.6318 70.4344C28.6318 70.5587 28.6073 70.6817 28.5597 70.7965C28.5121 70.9113 28.4424 71.0156 28.3545 71.1034C28.2665 71.1912 28.1622 71.2608 28.0473 71.3083C27.9325 71.3557 27.8094 71.3801 27.6851 71.3799Z" fill="#614BF2"/>
<path d="M14.7081 67.3148H7.44721C7.32294 67.315 7.19986 67.2906 7.085 67.2432C6.97015 67.1957 6.86578 67.1261 6.77785 67.0383C6.68992 66.9505 6.62017 66.8462 6.57258 66.7314C6.52499 66.6166 6.50049 66.4936 6.50049 66.3693C6.50049 66.245 6.52499 66.122 6.57258 66.0072C6.62017 65.8924 6.68992 65.7881 6.77785 65.7003C6.86578 65.6125 6.97015 65.5429 7.085 65.4954C7.19986 65.448 7.32294 65.4236 7.44721 65.4238H14.7081C14.8324 65.4236 14.9555 65.448 15.0703 65.4954C15.1852 65.5429 15.2895 65.6125 15.3775 65.7003C15.4654 65.7881 15.5352 65.8924 15.5827 66.0072C15.6303 66.122 15.6548 66.245 15.6548 66.3693C15.6548 66.4936 15.6303 66.6166 15.5827 66.7314C15.5352 66.8462 15.4654 66.9505 15.3775 67.0383C15.2895 67.1261 15.1852 67.1957 15.0703 67.2432C14.9555 67.2906 14.8324 67.315 14.7081 67.3148Z" fill="#614BF2"/>
<path d="M45.6192 48.5714C45.4654 48.5715 45.313 48.5417 45.1706 48.4835L19.906 38.0005V5.18682C19.9063 4.89666 20.0218 4.61848 20.2269 4.41331C20.4321 4.20813 20.7103 4.09271 21.0005 4.09238H69.4687C69.7589 4.09272 70.0371 4.20813 70.2422 4.41331C70.4474 4.61848 70.5628 4.89666 70.5632 5.18682V38.0234L70.5157 38.0437L46.0814 48.4784C45.9351 48.5399 45.7779 48.5715 45.6192 48.5714Z" fill="white"/>
<path d="M45.6192 48.6495C45.4552 48.6497 45.2927 48.6179 45.1409 48.5559L19.8279 38.0527V5.18684C19.8282 4.87595 19.9519 4.5779 20.1717 4.35806C20.3916 4.13823 20.6896 4.01457 21.0005 4.01422H69.4688C69.7797 4.01457 70.0777 4.13823 70.2976 4.35806C70.5174 4.5779 70.641 4.87595 70.6414 5.18684V38.075L46.1121 48.5503C45.9561 48.6159 45.7885 48.6496 45.6192 48.6495ZM20.1406 37.8438L45.2601 48.2668C45.4944 48.3619 45.7568 48.3603 45.99 48.2624L70.3287 37.8686V5.18684C70.3284 4.95886 70.2378 4.74029 70.0765 4.57908C69.9153 4.41788 69.6968 4.32719 69.4688 4.32692H21.0005C20.7725 4.32719 20.554 4.41788 20.3927 4.57908C20.2315 4.74029 20.1409 4.95886 20.1406 5.18684L20.1406 37.8438Z" fill="#3F3D56"/>
<path d="M88.4651 30.2809H88.4338L70.4849 37.9452L45.9272 48.4315C45.8312 48.4719 45.7282 48.4929 45.6241 48.4935C45.52 48.494 45.4168 48.474 45.3205 48.4346L19.9841 37.9233L1.59427 30.2934L1.56618 30.2809H1.53487C1.24471 30.2812 0.966518 30.3966 0.76134 30.6018C0.556161 30.807 0.440752 31.0852 0.44043 31.3754V78.9055C0.440752 79.1957 0.556161 79.4739 0.76134 79.6791C0.966518 79.8843 1.24471 79.9997 1.53487 80H88.4651C88.7552 79.9997 89.0334 79.8843 89.2386 79.6791C89.4438 79.4739 89.5592 79.1957 89.5595 78.9055V31.3754C89.5592 31.0852 89.4438 30.807 89.2386 30.6018C89.0334 30.3966 88.7552 30.2812 88.4651 30.2809ZM89.2468 78.9055C89.2467 79.1129 89.1644 79.3116 89.0178 79.4582C88.8712 79.6048 88.6724 79.6872 88.4651 79.6873H1.53487C1.32757 79.6872 1.12878 79.6048 0.982189 79.4582C0.835601 79.3116 0.753211 79.1129 0.753128 78.9055V31.3754C0.753412 31.1732 0.831828 30.979 0.971983 30.8333C1.11214 30.6876 1.30318 30.6017 1.50518 30.5936L19.9841 38.261L45.2001 48.7239C45.4731 48.8349 45.779 48.8333 46.0507 48.7192L70.4849 38.2844L88.4964 30.5936C88.698 30.6023 88.8885 30.6884 89.0283 30.834C89.1681 30.9796 89.2464 31.1735 89.2468 31.3754V78.9055Z" fill="#3F3D56"/>
<path d="M45.3667 39.2666C44.434 39.2684 43.526 38.9668 42.7798 38.4073L42.7335 38.3726L32.9912 30.9136C32.54 30.5679 32.1614 30.1367 31.8768 29.6446C31.5923 29.1526 31.4074 28.6093 31.3328 28.0458C31.2582 27.4824 31.2954 26.9097 31.4421 26.3606C31.5888 25.8114 31.8423 25.2966 32.188 24.8454C32.5337 24.3942 32.9648 24.0155 33.4569 23.731C33.9489 23.4464 34.4922 23.2616 35.0557 23.187C35.6192 23.1124 36.1918 23.1495 36.741 23.2963C37.2901 23.443 37.805 23.6964 38.2561 24.0421L44.5665 28.8808L59.4787 9.43302C59.8246 8.98195 60.2559 8.60342 60.748 8.31904C61.2402 8.03467 61.7835 7.85001 62.347 7.77563C62.9105 7.70124 63.4832 7.73858 64.0323 7.88551C64.5813 8.03244 65.0961 8.28609 65.5471 8.63196L65.4544 8.75785L65.5496 8.63379C66.4594 9.33307 67.0547 10.3647 67.2049 11.5024C67.3551 12.64 67.0479 13.7908 66.3506 14.7023L48.8102 37.5775C48.4045 38.1046 47.8829 38.5312 47.2857 38.8241C46.6885 39.1171 46.0319 39.2685 45.3667 39.2666Z" fill="#614BF2"/>
</g>
<defs>
<clipPath id="clip0_1_6006">
<rect width="89.1191" height="80" fill="white" transform="translate(0.44043)"/>
</clipPath>
</defs>
</svg>
